<svg xmlns="http://www.w3.org/2000/svg" role="img" viewBox="2.10 2.10 59.73 59.73"><title>access1.svg</title><style>svg {enable-background:new 0 0 512 512}</style><defs xmlns="http://www.w3.org/2000/svg"><linearGradient id="linear-gradient" x1="3.25" x2="60.75" y1="32" y2="32" gradientUnits="userSpaceOnUse"><stop offset="0" stop-color="#5bb4f6"/><stop offset=".61" stop-color="#2191e5"/><stop offset="1" stop-color="#007edb"/></linearGradient><style/></defs><path fill="#df642b" d="M31.7 44.19a8 8 0 0 1-8.32 1.94A3.93 3.93 0 1 0 18.3 41c-2.3-6.23 4.28-12.62 10.54-10.12 5.39 1.87 7 9.38 2.86 13.31zM60.75 32A28.75 28.75 0 0 1 32 60.75 28.75 28.75 0 0 1 3.25 32 28.75 28.75 0 0 1 32 3.25 28.75 28.75 0 0 1 60.75 32zM47.63 17.56a.7.7 0 0 0-.22-.55c-.34-.29-.91-1.12-1.4-1.07l-4 .26a.77.77 0 0 0-.7.7l-.22 3.34-3.34.23a.74.74 0 0 0-.69.7l-.22 3.33-3.35.22a.77.77 0 0 0-.7.7l-.22 3.35-4 .47c-9.65-2.69-16.46 9.37-9.14 16.25 7.79 7.11 19.57-1.57 15.24-11.1l12.66-12.66a.73.73 0 0 0 .22-.52z" data-original="#000000" xmlns="http://www.w3.org/2000/svg" id="Layer_85" data-name="Layer 85"/></svg>