<svg xmlns="http://www.w3.org/2000/svg" role="img" viewBox="-5.40 -1.90 410.54 118.54"><title>adobe-horizontal-color-trimmed.svg</title><style>svg {enable-background:new 0 0 400 115}</style><style>.st0{fill:#fa0f00}</style><g id="Layer_1"><path d="M173 74.6l-4.3 13.1c-.2.4-.4.7-1 .7h-10.3c-.6 0-.8-.4-.7-.9l17.8-51.2c.4-1 .7-2 .9-5.4 0-.4.3-.6.5-.6h14.2c.4 0 .6.1.7.5L211 87.7c.2.4.1.8-.4.8H199c-.5 0-.8-.2-1-.6l-4.5-13.2H173zm17.2-11c-1.8-5.9-5.3-16.6-7-22.9h-.1c-1.4 5.9-4.6 15.7-6.9 22.9h14zm22.2 3.2c0-12.7 9.5-23.3 25.7-23.3.7 0 1.6.1 2.9.2V26.2c0-.4.3-.6.6-.6h11.2c.4 0 .5.2.5.5v52.5c0 2 .1 4.7.4 6.5 0 .4-.1.6-.6.8-6.1 2.6-12 3.6-17.5 3.6-13.1-.1-23.2-7.6-23.2-22.7zm28.7-12.6c-.9-.4-2-.4-3.3-.4-6.8 0-12.7 4.2-12.7 12.4 0 8.8 5.1 12.6 11.8 12.6 1.5 0 2.9-.1 4.2-.5V54.2zm63.2 12c0 13.9-9.1 23.2-21.8 23.2-15.2 0-21.9-11.5-21.9-22.9 0-12.6 8.4-23 22.1-23 14.2 0 21.6 10.7 21.6 22.7zm-31.3.1c0 7.8 3.6 12.8 9.6 12.8 5.1 0 9.1-4.4 9.1-12.6 0-6.9-2.8-12.7-9.6-12.7-5.2 0-9.1 4.6-9.1 12.5zm49.9-40.7c.7 0 .9.1.9.7v18.2c2.3-.6 4.8-1 7.5-1 13 0 21.3 9.2 21.3 21.1 0 16.6-13.1 24.8-26.6 24.8-4.7 0-9.4-.6-13.9-2-.3-.1-.5-.5-.5-.9V26.2c0-.4.2-.6.6-.6h10.7zM329 54c-2.8 0-4.1.4-5.2.7v24.1c1.1.3 2.2.4 3.3.4 6.7 0 12.9-4.1 12.9-13.3 0-8.2-4.7-11.9-11-11.9zm40.9 15.7c.4 5.1 4 9.2 12.7 9.2 4 0 7.5-.6 10.9-2 .3-.2.5-.1.5.4v8.4c0 .6-.2.9-.6 1.1-3.6 1.7-7.5 2.6-13.6 2.6-16.7 0-22.5-11.5-22.5-22.5 0-12.2 7.5-23.4 21.5-23.4 13.4 0 18.7 10.4 18.7 19.2 0 2.8-.2 5-.4 5.9-.1.4-.3.6-.7.7-1.2.2-4.5.4-9.1.4h-17.4zm11.6-8.6c2.8 0 4.1-.1 4.4-.2v-.6c0-2.1-1.7-7-7.5-7-5.6 0-8 4.2-8.5 7.8h11.6z" class="st0"/><path d="M75.7 6.1h43v102.8z" class="st0"/><path d="M45.5 6.1h-43v102.8z" class="st0"/><path d="M60.6 44L88 108.9H70l-8.2-20.7h-20z" class="st0"/></g></svg>