<svg xmlns="http://www.w3.org/2000/svg" role="img" viewBox="2.10 2.10 59.73 59.73"><title>explore.svg</title><style>svg {enable-background:new 0 0 512 512}</style><linearGradient xmlns="http://www.w3.org/2000/svg" id="a" x1="3.25" x2="60.75" y1="32" y2="32" gradientUnits="userSpaceOnUse"><stop offset="0" stop-color="#df642b"/><stop offset=".61" stop-color="#df642b"/><stop offset="1" stop-color="#df642b"/></linearGradient><g xmlns="http://www.w3.org/2000/svg" data-name="Layer 35"><circle cx="32" cy="32" r="28.75" fill="url(#a)" data-original="url(#linear-gradient)"/><path d="M41.38 21.68L8.5 32.38a.75.75 0 0 0 .06 1.44L26 38l4.2 17.42a.76.76 0 0 0 .7.58.75.75 0 0 0 .71-.52l10.7-32.88a.74.74 0 0 0-.94-.94zM31 52.51l-3.66-15.29a.73.73 0 0 0-.56-.55L11.49 33l28.95-9.43zm10.61-41.26a.76.76 0 0 0-.75.75v4.43a.75.75 0 0 0 1.5 0V12a.76.76 0 0 0-.75-.75zm4.21 7.68a.73.73 0 0 0 .53-.22l3.14-3.14a.75.75 0 1 0-1.06-1.06l-3.14 3.14a.75.75 0 0 0 0 1.06.74.74 0 0 0 .53.22zM52 21.64h-4.43a.75.75 0 0 0 0 1.5H52a.75.75 0 0 0 0-1.5zm-5.65 4.43a.75.75 0 0 0-1.06 1.06l3.14 3.14a.75.75 0 0 0 .53.22.79.79 0 0 0 .53-.22.75.75 0 0 0 0-1.06zm-9.48-7.36a.73.73 0 0 0 .53.22.74.74 0 0 0 .53-.22.75.75 0 0 0 0-1.06l-3.14-3.14a.75.75 0 1 0-1.06 1.06z" data-original="#ffffff" fill="#fff"/></g></svg>