<svg xmlns="http://www.w3.org/2000/svg" role="img" viewBox="2.10 2.10 59.73 59.73"><title>findout1.svg</title><style>svg {enable-background:new 0 0 512 512}</style><linearGradient xmlns="http://www.w3.org/2000/svg" id="a" x1="3.25" x2="60.75" y1="32" y2="32" gradientUnits="userSpaceOnUse"><stop offset="0" stop-color="#df642b"/><stop offset=".61" stop-color="#df642b"/><stop offset="1" stop-color="#df642b"/></linearGradient><g xmlns="http://www.w3.org/2000/svg" data-name="Layer 63"><circle cx="32" cy="32" r="28.75" fill="url(#a)" data-original="url(#linear-gradient)"/><g fill="#fff"><path d="M27.88 15a12.94 12.94 0 1 0 12.94 12.88A12.94 12.94 0 0 0 27.88 15zm0 24.37a11.44 11.44 0 1 1 11.44-11.49 11.45 11.45 0 0 1-11.44 11.44z" data-original="#ffffff"/><path d="M49.74 46l-8.4-8.39a16.73 16.73 0 1 0-3.69 3.69L46 49.74a2.62 2.62 0 0 0 3.7-3.7zm-37-18.16A15.16 15.16 0 1 1 27.88 43a15.17 15.17 0 0 1-15.15-15.12zm35.93 20.83a1.1 1.1 0 0 1-1.57 0l-8.27-8.27a16.62 16.62 0 0 0 1.57-1.57l8.27 8.27a1.1 1.1 0 0 1 0 1.57z" data-original="#ffffff"/></g></g></svg>