<svg xmlns="http://www.w3.org/2000/svg" role="img" viewBox="2.10 2.10 59.73 59.73"><title>Gain competative.svg</title><style>svg {enable-background:new 0 0 512 512}</style><linearGradient xmlns="http://www.w3.org/2000/svg" id="a" x1="3.25" x2="60.75" y1="32" y2="32" gradientUnits="userSpaceOnUse"><stop offset="0" stop-color="#df642b"/><stop offset=".61" stop-color="#df642b"/><stop offset="1" stop-color="#df642b"/></linearGradient><g xmlns="http://www.w3.org/2000/svg" data-name="Layer 70"><circle cx="32" cy="32" r="28.75" fill="url(#a)" data-original="url(#linear-gradient)"/><g fill="#fff"><path d="M52 42.49H12.75v-18.7a.75.75 0 0 0-1.5 0v19.45A.76.76 0 0 0 12 44h40a.75.75 0 0 0 0-1.5z" data-original="#ffffff"/><path d="M17.71 38.83a.77.77 0 0 0 .56-.25l11.84-13.2L33.38 29a.77.77 0 0 0 1.12 0l11-12.31v4.12a.75.75 0 0 0 1.5 0v-6.05a.79.79 0 0 0-.75-.75H40.2a.75.75 0 0 0 0 1.5h4.41l-10.67 11.9-3.27-3.66a.79.79 0 0 0-1.12 0L17.16 37.58a.75.75 0 0 0 .05 1.06.82.82 0 0 0 .5.19z" data-original="#ffffff"/></g></g></svg>