<svg xmlns="http://www.w3.org/2000/svg" role="img" viewBox="0.17 0.17 641.16 280.16"><title>kccnc-na-2022-white-01.svg</title><defs><clipPath id="clip-path"><path d="M496.611 255.23H629.03v1H496.611z" class="cls-1"/></clipPath><clipPath id="clip-path-2"><path d="M12.63 255.23h126.5v1H12.63z" class="cls-1"/></clipPath><clipPath id="clip-path-3"><path d="M246.63 13.43h1v203.5h-1z" class="cls-1"/></clipPath><style>.cls-1,.cls-5{fill:#fff}.cls-2{opacity:.8}.cls-5{fill-rule:evenodd}</style></defs><g class="cls-2"><path id="SVGID" d="M496.61105 255.23H629.03v1H496.611z" class="cls-1"/><path d="M496.611 255.23H629.03v1H496.611z" class="cls-1"/><g clip-path="url(#clip-path)"><path d="M496.61105 255.23H629.03v1H496.611z" class="cls-1"/></g></g><g class="cls-2"><path id="SVGID-2" d="M12.63 255.23h126.5v1H12.63z" class="cls-1" data-name="SVGID"/><path d="M12.63 255.23h126.5v1H12.63z" class="cls-1"/><g clip-path="url(#clip-path-2)"><path d="M12.63 255.23h126.5v1H12.63z" class="cls-1"/></g></g><path d="M185.63 187.33c1.1-.3 2.4-.6 4.1-.9a29.60758 29.60758 0 0 1 5.2-.4 12.03117 12.03117 0 0 1 4.6.7 7.03052 7.03052 0 0 1 2.9 2.1 7.91362 7.91362 0 0 1 1.5 3.2 17.70552 17.70552 0 0 1 .5 4.1v12.4h-6.1v-11.7a8.34929 8.34929 0 0 0-.8-4.2q-.75-1.2-3-1.2a7.08417 7.08417 0 0 0-1.4.1c-.5 0-.9.1-1.3.1v16.9h-6.2v-21.2zm-11.4 10.1a8.30843 8.30843 0 0 0-1.1-4.5 4.20311 4.20311 0 0 0-6.6 0 7.50919 7.50919 0 0 0-1.2 4.5 8.05889 8.05889 0 0 0 1.2 4.6 4.05294 4.05294 0 0 0 6.6 0 8.68558 8.68558 0 0 0 1.1-4.6m6.3 0a14.05486 14.05486 0 0 1-.7 4.7 10.70227 10.70227 0 0 1-2.2 3.7 10.00729 10.00729 0 0 1-7.8 3.2 12.30677 12.30677 0 0 1-4.4-.8 10.03715 10.03715 0 0 1-3.4-2.4 10.40249 10.40249 0 0 1-2.2-3.7 14.20608 14.20608 0 0 1 0-9.4 10.88744 10.88744 0 0 1 2.2-3.6 9.75572 9.75572 0 0 1 3.4-2.3 10.29415 10.29415 0 0 1 4.3-.8 11.758 11.758 0 0 1 4.3.8 11.3402 11.3402 0 0 1 3.4 2.3 10.88724 10.88724 0 0 1 2.2 3.6 11.933 11.933 0 0 1 .9 4.7m-33.7 11.6c-4.7 0-8.3-1.3-10.7-3.9-2.5-2.6-3.7-6.3-3.7-11.1a18.25929 18.25929 0 0 1 1.1-6.4 12.9246 12.9246 0 0 1 7.8-7.6 16.25515 16.25515 0 0 1 5.9-1 16.85763 16.85763 0 0 1 3.3.3c1 .2 1.9.4 2.6.6a19.68393 19.68393 0 0 1 1.9.7 3.58043 3.58043 0 0 1 1.1.6l-1.9 5.2a12.522 12.522 0 0 0-3.1-1.2 16.19932 16.19932 0 0 0-4-.5 9.29069 9.29069 0 0 0-2.9.5 5.98255 5.98255 0 0 0-2.5 1.6 9.65164 9.65164 0 0 0-1.8 2.8 13.17153 13.17153 0 0 0-.7 4.2 14.4827 14.4827 0 0 0 .4 3.7 9.22818 9.22818 0 0 0 1.4 3 7.52968 7.52968 0 0 0 2.6 2 8.897 8.897 0 0 0 3.8.7 18.09668 18.09668 0 0 0 2.5-.2 10.08519 10.08519 0 0 0 2-.4 13.08148 13.08148 0 0 0 1.5-.5 6.11763 6.11763 0 0 1 1.2-.5l1.8 5.2a12.19356 12.19356 0 0 1-3.9 1.5 19.32033 19.32033 0 0 1-5.7.7m-24.7-13.7a4.01256 4.01256 0 0 0-.3-1.5 5.388 5.388 0 0 0-.7-1.3 4.00141 4.00141 0 0 0-1.2-1 4.77643 4.77643 0 0 0-1.8-.4 3.42461 3.42461 0 0 0-1.8.4 2.73 2.73 0 0 0-1.2.9 4.67775 4.67775 0 0 0-.8 1.4 7.49111 7.49111 0 0 0-.4 1.6h8.2zm-14.5 2.3a13.638 13.638 0 0 1 .9-5.1 9.47826 9.47826 0 0 1 2.4-3.6 10.04457 10.04457 0 0 1 3.3-2.2 10.72332 10.72332 0 0 1 3.9-.7 9.72437 9.72437 0 0 1 7.4 2.8q2.7 2.85 2.7 8.4v1.2c0 .4-.1.8-.1 1.1h-14.1a3.71721 3.71721 0 0 0 1.8 3 7.6981 7.6981 0 0 0 4.2 1.1 17.60962 17.60962 0 0 0 3.3-.3 12.54357 12.54357 0 0 0 2.7-.8l.8 5a8.93091 8.93091 0 0 1-1.3.5 10.62153 10.62153 0 0 1-1.9.4c-.7.1-1.4.2-2.2.3a18.482 18.482 0 0 1-2.3.1 12.92845 12.92845 0 0 1-5.1-.9 9.47813 9.47813 0 0 1-3.6-2.4 8.1782 8.1782 0 0 1-2.1-3.6 11.41459 11.41459 0 0 1-.7-4.3m-4.1-.1a14.03345 14.03345 0 0 1-.8 4.7 10.88738 10.88738 0 0 1-2.2 3.6 9.67247 9.67247 0 0 1-3.6 2.3 14.19413 14.19413 0 0 1-4.8.8 20.93223 20.93223 0 0 1-2.4-.1l-2.4-.3a18.45911 18.45911 0 0 1-2.3-.4c-.7-.2-1.4-.3-1.9-.5v-30.6l6.2-1v10.9a14.16125 14.16125 0 0 1 2.2-.7 9.34537 9.34537 0 0 1 2.4-.2 10.33021 10.33021 0 0 1 4.1.8 7.56065 7.56065 0 0 1 3 2.3 10.15193 10.15193 0 0 1 1.8 3.6 14.66063 14.66063 0 0 1 .7 4.8m-6.3-.2c0-4-1.5-6-4.4-6a12.25368 12.25368 0 0 0-1.9.2 11.638 11.638 0 0 0-1.5.6v11.3a4.12044 4.12044 0 0 0 1.2.1c.5 0 1 .1 1.5.1a4.452 4.452 0 0 0 3.8-1.7 7.84368 7.84368 0 0 0 1.3-4.6m-20.2 10.4c-1.1.3-2.4.6-4.1.9a29.60766 29.60766 0 0 1-5.2.4 12.03111 12.03111 0 0 1-4.6-.7 7.0305 7.0305 0 0 1-2.9-2.1 8.59293 8.59293 0 0 1-1.5-3.2 17.045 17.045 0 0 1-.5-4.1v-12.2h6.1v11.4a9.0769 9.0769 0 0 0 .8 4.3c.5.9 1.5 1.3 3 1.3a7.08348 7.08348 0 0 0 1.4-.1c.5 0 .9-.1 1.3-.1v-16.9h6.2v21.1zm-28.6.7c-.6-.9-1.3-2-2.1-3.1a37.46268 37.46268 0 0 0-2.6-3.3c-.9-1.1-1.9-2.1-2.9-3.2a36.53174 36.53174 0 0 0-3-2.7v12.2h-6.5v-28.8h6.5v10.9c1.7-1.8 3.4-3.6 5.1-5.6 1.7-1.9 3.3-3.7 4.8-5.3h7.7c-2 2.3-3.9 4.6-5.9 6.7-2 2.2-4.1 4.3-6.3 6.5a54.04431 54.04431 0 0 1 6.7 6.8 88.54617 88.54617 0 0 1 6.2 8.7h-7.7z" class="cls-1"/><path d="M100.43 81.23l-3.6.8c0-.5-.1-1-.1-1.5a20.70777 20.70777 0 0 1 3-10.8l7 6.2a1.38046 1.38046 0 0 0 .4.3 11.40359 11.40359 0 0 0-.8 3.3c-.2.1-.5.1-.7.2zm13.6-21.2v9.8a8.66969 8.66969 0 0 0-2.7 1.4c-.3-.2-.6-.5-.9-.7l-7.1-5a19.72778 19.72778 0 0 1 10.7-5.5m-48.7 22.6c3.4-14.9 6.3-27.5 9.7-42.4 1.5-6.7 2.5-8.5 8.6-12 8.4-4.9 14.7-8.4 23.7-13.6 5.6-3.2 6.7-3 6.7 3.9v34.6a27.03358 27.03358 0 0 0-16.4 8.3l-3-2.1a1.44539 1.44539 0 0 1-.7-1 4.87059 4.87059 0 0 0-1.6-2.4 3.27185 3.27185 0 0 0-4.1 5.1 3.46488 3.46488 0 0 0 1.6.8c.4.1.8.1 1.2.2a2.47075 2.47075 0 0 1 .9.4l2.8 2.5a27.37853 27.37853 0 0 0-4.7 15.4c0 1 .1 2 .2 3l-6.1 1.3a6.15153 6.15153 0 0 0-1.3.1l-.9.3c-4 .8-8 1.7-12.1 2.6-5.5 1.3-5.7.2-4.5-5m55.8-12.8v-9.8a21.0278 21.0278 0 0 1 10.7 5.4l-7.7 5.5c-.1.1-.2.2-.3.2a11.11313 11.11313 0 0 0-2.7-1.3m17.2 11.5l-9.6-2.2a9.46887 9.46887 0 0 0-.8-3c.1-.1.2-.2.3-.2l7.1-6.3a20.89419 20.89419 0 0 1 3.1 10.9 1.94925 1.94925 0 0 0-.1.8m-12.5-52.9c5.2 2.5 8.9 4.3 14.1 6.8 7.2 3.5 14.4 7 21.7 10.4 1.8 7.8 3.6 15.6 5.3 23.4 1.1 4.7 1.6 7.2 2.7 11.8 1.7 7.3 1.5 7.9-6 6.2l-18.5-4.2a19.26681 19.26681 0 0 0 .1-2.4 26.80638 26.80638 0 0 0-4.8-15.5l2.6-2.4a2.21981 2.21981 0 0 1 1.1-.5 5.234 5.234 0 0 0 2.7-1 3.27185 3.27185 0 1 0-4.1-5.1 4.07145 4.07145 0 0 0-1.2 1.4c-.2.4-.3.7-.5 1.1a1.55511 1.55511 0 0 1-.6.8l-3 2.1a27.30412 27.30412 0 0 0-16.4-8.3v-21.1c.1-4.9.5-5.5 4.8-3.5m-6.4 63a11.07592 11.07592 0 0 1-1.9.2 10.86882 10.86882 0 0 1-1.8-.1l-.3.6-4.4 8.1a20.76488 20.76488 0 0 0 6.6 1.1 21.8692 21.8692 0 0 0 6.7-1.1l-4.4-8a3.50823 3.50823 0 0 1-.5-.8m7.8-5.3l9.6 2.2a20.74277 20.74277 0 0 1-7.8 9.5l-3.8-9.2a15.6658 15.6658 0 0 0 2-2.5m-28.9 2.1l9.6-2.2a13.2904 13.2904 0 0 0 2.1 2.6l-.3.6-3.5 8.6a20.59851 20.59851 0 0 1-7.9-9.6m78.6 16.9c-4.6 5.7-6.7 8.4-11.3 14.1-5.2 6.5-9.4 11.8-14.6 18.3-3.7 4.7-6.4 4.8-12.5 4.8h-42c-8 0-8.6 0-13.5-6.2-4.9-6.1-8.7-10.9-13.5-17-3.8-4.8-4.8-6-8.6-10.8-5.9-7.4-6.9-10.1 2.3-12.1l28.4-6.4a28.08137 28.08137 0 0 0 11.9 14.4l-1.3 3a1.76459 1.76459 0 0 1-.8.9 4.53516 4.53516 0 0 0-2 2.1 3.2871 3.2871 0 1 0 5.9 2.9 5.3403 5.3403 0 0 0 .5-1.8 4.86852 4.86852 0 0 0-.1-1.2 1.803 1.803 0 0 1 .2-1l1.6-2.9a27.97333 27.97333 0 0 0 9.9 1.8 26.5201 26.5201 0 0 0 10-1.9l1.6 2.9a1.63657 1.63657 0 0 1 .2 1.2 4.49923 4.49923 0 0 0 .4 2.8 3.2871 3.2871 0 1 0 5.9-2.9 4.177 4.177 0 0 0-1.1-1.5 6.06986 6.06986 0 0 0-1-.7 1.242 1.242 0 0 1-.6-.8l-1.3-3.2a27.42738 27.42738 0 0 0 11.8-14.4l31.3 7.1c6.3 1.7 5.9 3.9 2.3 8.5" class="cls-5"/><path d="M121.13 69.83v-9.8a21.0278 21.0278 0 0 1 10.7 5.4l-7.7 5.5c-.1.1-.2.2-.3.2a11.11313 11.11313 0 0 0-2.7-1.3m17.2 11.5l-9.6-2.2a9.46887 9.46887 0 0 0-.8-3c.1-.1.2-.2.3-.2l7.1-6.3a20.89419 20.89419 0 0 1 3.1 10.9 1.94925 1.94925 0 0 0-.1.8m-12.5-52.9c5.2 2.5 8.9 4.3 14.1 6.8 7.2 3.5 14.4 7 21.7 10.4 1.8 7.8 3.6 15.6 5.3 23.4 1.1 4.7 1.6 7.2 2.7 11.8 1.7 7.3 1.5 7.9-6 6.2l-18.5-4.2a19.26681 19.26681 0 0 0 .1-2.4 26.80638 26.80638 0 0 0-4.8-15.5l2.6-2.4a2.21981 2.21981 0 0 1 1.1-.5 5.234 5.234 0 0 0 2.7-1 3.27185 3.27185 0 1 0-4.1-5.1 4.07145 4.07145 0 0 0-1.2 1.4c-.2.4-.3.7-.5 1.1a1.55511 1.55511 0 0 1-.6.8l-3 2.1a27.30412 27.30412 0 0 0-16.4-8.3v-21.1c.1-4.9.5-5.5 4.8-3.5m1.4 57.7l9.6 2.2a20.74274 20.74274 0 0 1-7.8 9.5l-3.8-9.2a15.66624 15.66624 0 0 0 2-2.5m-9.7 15.1v-9.6a12.25245 12.25245 0 0 0 1.9-.2 2.506 2.506 0 0 0 .4.7l4.4 8a21.86925 21.86925 0 0 1-6.7 1.1m59.4 3.9c-4.6 5.7-6.7 8.4-11.3 14.1-5.2 6.5-9.4 11.8-14.6 18.3-3.7 4.7-6.4 4.8-12.5 4.8h-20.9v-34.3a26.5201 26.5201 0 0 0 10-1.9l1.6 2.9a1.63655 1.63655 0 0 1 .2 1.2 4.49912 4.49912 0 0 0 .4 2.8 3.2871 3.2871 0 0 0 5.9-2.9 4.17681 4.17681 0 0 0-1.1-1.5 6.07088 6.07088 0 0 0-1-.7 1.242 1.242 0 0 1-.6-.8l-1.3-3.2a27.42739 27.42739 0 0 0 11.8-14.4l31.3 7.1c6.1 1.7 5.7 3.9 2.1 8.5" class="cls-5"/><path d="M408.93 103.93h-16.6v38.8h38.7v-16.6h-22.1zm83.1.1v22.1h-22l-.2-.2v16.8h38.8v-38.8h-16.7zm-99.7-38.9h16.7l-.1-.1v-22.1h22l.1.2v-16.8h-38.7zm77.5-38.8v16.6h22.2v22.2h16.6v-38.8z" class="cls-1"/><path fill="#fff" d="M467.83 65.13l-22.2-22.2h24.2v-16.6h-38.8v16.8l22.1 22zm-20 38.8h-14.7l18.4 18.4 3.8 3.8h-24.3v16.6h38.8v-16.8l-11-11zm44.2-38.8v24.2l-3.8-3.8-18.4-18.3v14.7l11.1 11 11 11h16.7v-38.8zm-61 22l-22-22h-16.8v38.8h16.7v-24.2l22.1 22.1z" opacity=".8"/><path d="M311.13 185.03l-4.2 5a9.83079 9.83079 0 0 0-7.2-3.7 8.03082 8.03082 0 0 0-8 8.3c0 4.8 3.4 8.4 8 8.4a10.57482 10.57482 0 0 0 7.2-3.4l4.3 4.5a17.50846 17.50846 0 0 1-11.8 5.2c-8.6 0-15-6.3-15-14.7 0-8.3 6.6-14.5 15.3-14.5a17.21026 17.21026 0 0 1 11.4 4.9zm3.5 24v-30.3h7.1v30.3zm35.2-11c0 6.8-4.8 11.3-12 11.3s-12.1-4.5-12.1-11.3 4.8-11.2 12.1-11.2c7.2 0 12 4.4 12 11.2zm-17 .1c0 3.4 2 5.7 4.9 5.7s4.9-2.3 4.9-5.7-2-5.7-4.9-5.7-4.9 2.3-4.9 5.7zm42.3 10.9h-7.1v-3.6a7.79643 7.79643 0 0 1-7.2 3.9c-4.8 0-7.9-3.3-7.9-8.4v-13.9h7.1v11.9c0 2.6 1.4 4.2 3.7 4.2 2.7 0 4.3-2.2 4.3-5.2v-10.9h7.1zm27.8 0h-7.1v-2.9a8.15188 8.15188 0 0 1-6.6 3.2c-6.2 0-10.3-4.6-10.3-11.4 0-6.7 4-11.2 10.1-11.2a8.12756 8.12756 0 0 1 6.8 3.2v-11.2h7.1v30.3zm-7.1-10.9c0-3.4-2-5.7-4.9-5.7s-4.9 2.3-4.9 5.7 2 5.8 4.9 5.8c3-.1 4.9-2.4 4.9-5.8zm33 10.9l-13.2-17.6v17.6h-6.8v-28.6h6.4l13.2 17.7v-17.7h6.8v28.6zm31.6-14.4v14.4h-6.9v-2.5c-1.4 1.9-3.8 2.9-6.7 2.9-4.7 0-7.6-2.9-7.6-6.9 0-4.2 3-6.6 8.5-6.7h5.8v-.3c0-2.2-1.4-3.5-4.3-3.5a16.83678 16.83678 0 0 0-6.6 1.8l-2-4.7a22.92146 22.92146 0 0 1 10.2-2.5c6.1.1 9.6 3.1 9.6 8zm-6.9 7v-2h-4.5c-2.1 0-3.2.7-3.2 2.4 0 1.6 1.1 2.6 3.1 2.6a4.57124 4.57124 0 0 0 4.6-3zm26 6.3a12.58388 12.58388 0 0 1-5.9 1.5c-4.3 0-7.3-2.4-7.3-7v-9.7h-3.1v-4.6h3.1v-6.1h7v6.1h5.8v4.7h-5.8v8.6c0 1.7.7 2.5 2 2.4a8.28253 8.28253 0 0 0 2.7-.7zm10.8-27.2a3.65445 3.65445 0 0 1-3.7 3.8 3.75033 3.75033 0 0 1 0-7.5 3.516 3.516 0 0 1 3.7 3.7zm-7.3 28.3v-22h7v22zm18 0l-8.3-22h7.3l4.7 15.6 4.8-15.6h7l-8.3 22zm38.9-9.1h-15.5a5.14479 5.14479 0 0 0 5.2 4.1 7.85686 7.85686 0 0 0 5.3-2.2l3.7 3.6a12.4865 12.4865 0 0 1-9.6 3.9c-7.2 0-11.7-4.5-11.7-11.2 0-6.8 4.7-11.3 11.5-11.3 7.7 0 11.5 5.1 11.1 13.1zm-6.8-3.8a4.14947 4.14947 0 0 0-4.3-4.5c-2.5 0-4.1 1.8-4.6 4.5h8.9zm35.6-11.1l-4.2 5a9.83081 9.83081 0 0 0-7.2-3.7 8.03082 8.03082 0 0 0-8 8.3c0 4.8 3.4 8.4 8 8.4a10.57476 10.57476 0 0 0 7.2-3.4l4.3 4.5a17.50838 17.50838 0 0 1-11.8 5.2c-8.6 0-15-6.3-15-14.7 0-8.3 6.6-14.5 15.3-14.5a17.41907 17.41907 0 0 1 11.4 4.9zm24.7 13c0 6.8-4.8 11.3-12 11.3s-12.1-4.5-12.1-11.3 4.8-11.2 12.1-11.2c7.2 0 12 4.4 12 11.2zm-16.9.1c0 3.4 2 5.7 4.9 5.7s4.9-2.3 4.9-5.7-2-5.7-4.9-5.7-4.9 2.3-4.9 5.7zm43.2-3v13.9h-7v-11.9c0-2.6-1.5-4.2-3.9-4.2-2.6 0-4.2 1.8-4.5 4.5v11.7h-7.1v-22h7.1v3.6a8.11679 8.11679 0 0 1 7.4-3.9c4.8-.1 8 3.2 8 8.3z" class="cls-1"/><g class="cls-2"><path id="SVGID-3" d="M246.63 13.43h1v203.5h-1z" class="cls-1" data-name="SVGID"/><path d="M246.63 13.43h1v203.5h-1z" class="cls-1"/><g clip-path="url(#clip-path-3)"><path d="M246.63 13.43h1v203.5h-1z" class="cls-1"/></g></g><path d="M187.63 267.63h-6l-9.7-16.8h-.1c.2 3 .3 5.1.3 6.4v10.5h-4.2v-22.3h6l9.7 16.7h.1c-.2-2.9-.2-4.9-.2-6.1v-10.5h4.2v22.1zm20.7-8.5a8.99088 8.99088 0 0 1-2.2 6.5 7.84856 7.84856 0 0 1-6.1 2.3 8.58308 8.58308 0 0 1-4.3-1.1 7.27436 7.27436 0 0 1-2.9-3.1 9.87905 9.87905 0 0 1-1-4.7 8.99088 8.99088 0 0 1 2.2-6.5 8.219 8.219 0 0 1 6.1-2.3 8.58307 8.58307 0 0 1 4.3 1.1 7.27444 7.27444 0 0 1 2.9 3.1 9.879 9.879 0 0 1 1 4.7zm-11.7 0a7.41455 7.41455 0 0 0 .8 3.8 3.101 3.101 0 0 0 2.7 1.3 2.9918 2.9918 0 0 0 2.7-1.3 9.425 9.425 0 0 0 0-7.6 3.45382 3.45382 0 0 0-5.4 0 6.51852 6.51852 0 0 0-.8 3.8zm25.1-8.8a7.58873 7.58873 0 0 1 1.6.1l-.4 4.4a5.21188 5.21188 0 0 0-1.4-.2 5.42425 5.42425 0 0 0-3.5 1.1 4.22247 4.22247 0 0 0-1.2 3.2v8.7h-4.6v-17h3.5l.7 2.9h.2a5.82749 5.82749 0 0 1 2.1-2.3 5.29112 5.29112 0 0 1 3-.9zm11.8 13.9a11.75277 11.75277 0 0 0 2.9-.5v3.5a10.99624 10.99624 0 0 1-4.3.8 5.48275 5.48275 0 0 1-4.1-1.4 6.19227 6.19227 0 0 1-1.3-4.2v-8.2h-2.2v-2l2.6-1.6 1.3-3.6h3v3.6h4.8v3.5h-4.8v8.2a1.88654 1.88654 0 0 0 .6 1.5 2.41005 2.41005 0 0 0 1.5.4zm22.1 3.4h-4.6v-9.9c0-2.5-.9-3.7-2.7-3.7a3.05784 3.05784 0 0 0-2.8 1.3 7.86741 7.86741 0 0 0-.9 4.3v8h-4.6v-23.7h4.6v4.8c0 .4 0 1.3-.1 2.6l-.2 1.5h.2a5.27663 5.27663 0 0 1 4.9-2.5 6.14369 6.14369 0 0 1 4.6 1.6 6.56982 6.56982 0 0 1 1.6 4.6v11.1zm26.8 0l-1.6-5.3h-8.1l-1.6 5.3h-5.1l7.9-22.3h5.8l7.9 22.3h-5.2zm-2.7-9.3c-1.5-4.8-2.3-7.5-2.5-8.1s-.3-1.1-.4-1.5c-.3 1.3-1.3 4.5-2.9 9.6zm25.5 9.3h-4.6v-9.9a5.54507 5.54507 0 0 0-.6-2.8 2.19623 2.19623 0 0 0-1.9-.9 2.82282 2.82282 0 0 0-2.6 1.3 9.077 9.077 0 0 0-.8 4.3v8h-4.6v-17h3.5l.6 2.2h.3a4.37783 4.37783 0 0 1 2-1.8 7.34949 7.34949 0 0 1 3-.7c2.5 0 4.3.8 5.2 2.5h.4a4.37778 4.37778 0 0 1 2-1.8 7.34941 7.34941 0 0 1 3-.7 6.01636 6.01636 0 0 1 4.4 1.5q1.5 1.5 1.5 4.8v11.1h-4.7v-9.9a5.54506 5.54506 0 0 0-.6-2.8 2.1962 2.1962 0 0 0-1.9-.9 2.791 2.791 0 0 0-2.5 1.2 6.67893 6.67893 0 0 0-.8 3.9v8.4zm23 .3a7.97649 7.97649 0 0 1-8.7-8.7q0-4.35 2.1-6.6a7.408 7.408 0 0 1 5.9-2.3 7.31471 7.31471 0 0 1 5.6 2.1 8.07089 8.07089 0 0 1 2 5.7v2.3h-11a4.5668 4.5668 0 0 0 1.2 3.1 4.3313 4.3313 0 0 0 3.1 1.1 13.576 13.576 0 0 0 2.9-.3 20.04611 20.04611 0 0 0 2.9-1v3.6a11.42151 11.42151 0 0 1-2.6.9c-.9 0-2 .1-3.4.1zm-.6-14.3a2.86923 2.86923 0 0 0-2.3.9 4.16782 4.16782 0 0 0-1 2.7h6.5a4.00233 4.00233 0 0 0-.9-2.7 2.86917 2.86917 0 0 0-2.3-.9zm20.9-3.3a7.58794 7.58794 0 0 1 1.6.1l-.4 4.4a5.21219 5.21219 0 0 0-1.4-.2 5.42431 5.42431 0 0 0-3.5 1.1 4.22256 4.22256 0 0 0-1.2 3.2v8.7h-4.6v-17h3.5l.7 2.9h.2a5.82757 5.82757 0 0 1 2.1-2.3 5.29112 5.29112 0 0 1 3-.9zm4.4-4.1c0-1.5.8-2.3 2.5-2.3s2.5.8 2.5 2.3a2.35226 2.35226 0 0 1-.6 1.7 2.70714 2.70714 0 0 1-1.9.6c-1.6 0-2.5-.8-2.5-2.3zm4.9 21.4h-4.6v-17h4.6zm11.7.3c-5.3 0-7.9-2.9-7.9-8.7 0-2.9.7-5.1 2.2-6.6a8.14688 8.14688 0 0 1 6.2-2.3 11.48586 11.48586 0 0 1 5.3 1.2l-1.4 3.6c-.7-.3-1.4-.5-2-.7a6.27921 6.27921 0 0 0-1.9-.3q-3.6 0-3.6 5.1c0 3.3 1.2 5 3.6 5a6.90494 6.90494 0 0 0 2.5-.4 8.045 8.045 0 0 0 2.3-1.1v4a7.66288 7.66288 0 0 1-2.3 1 23.63743 23.63743 0 0 1-3 .2zm20-.3l-.9-2.3h-.1a6.0828 6.0828 0 0 1-2.4 2 7.30605 7.30605 0 0 1-3.2.6 5.6374 5.6374 0 0 1-3.9-1.4 5.55145 5.55145 0 0 1-1.4-4 4.47486 4.47486 0 0 1 1.9-4c1.3-.9 3.2-1.3 5.7-1.4l3-.1v-.7a2.32531 2.32531 0 0 0-2.6-2.6 12.05142 12.05142 0 0 0-4.8 1.2l-1.5-3.1a14.13165 14.13165 0 0 1 6.5-1.5 8.35523 8.35523 0 0 1 5.3 1.5 5.52278 5.52278 0 0 1 1.8 4.5v11.3h-3.4zm-1.4-7.9l-1.8.1a5.75421 5.75421 0 0 0-3 .7 2.11739 2.11739 0 0 0-1 2c0 1.3.8 2 2.3 2a3.73859 3.73859 0 0 0 2.6-.9 3.37929 3.37929 0 0 0 1-2.5v-1.4zm32.21277 8.06629H404.374v-3.35938l5.7344-5.79691q2.54589-2.60889 3.32812-3.61719a7.97052 7.97052 0 0 0 1.125-1.86719 4.76141 4.76141 0 0 0 .34375-1.78125 2.598 2.598 0 0 0-.75781-2.04687 2.9427 2.9427 0 0 0-2.02344-.67188 5.81655 5.81655 0 0 0-2.57812.60938 13.28556 13.28556 0 0 0-2.60938 1.73437l-2.625-3.10937a17.156 17.156 0 0 1 2.79688-2.03125 10.28927 10.28927 0 0 1 2.42187-.91406 12.43951 12.43951 0 0 1 2.9375-.32032 8.70354 8.70354 0 0 1 3.78125.78125 6.039 6.039 0 0 1 2.54688 2.1875 5.81717 5.81717 0 0 1 .90625 3.21875 7.88871 7.88871 0 0 1-.55469 2.96094 11.39776 11.39776 0 0 1-1.71875 2.83594 42.0206 42.0206 0 0 1-4.10156 4.14062l-2.9375 2.76563v.21875h9.95312zm18.14063-11.42188q0 5.98536-1.96094 8.85938a6.80377 6.80377 0 0 1-6.03906 2.875 6.72425 6.72425 0 0 1-5.96094-2.96875q-2.00831-2.96778-2.00781-8.76563 0-6.04687 1.95312-8.91406a7.59531 7.59531 0 0 1 11.99219.13281q2.02294 3 2.02344 8.78125zm-11.17188 0a17.76752 17.76752 0 0 0 .72657 6.02344 2.51523 2.51523 0 0 0 2.44531 1.82031 2.54145 2.54145 0 0 0 2.4375-1.84375 24.40848 24.40848 0 0 0-.00781-12.03906 2.53087 2.53087 0 0 0-4.86719 0 17.72872 17.72872 0 0 0-.73438 6.03906zm29.56248 11.42188h-15.96873v-3.35938l5.73438-5.79687q2.54589-2.60889 3.32812-3.61719a7.97052 7.97052 0 0 0 1.125-1.86719 4.76141 4.76141 0 0 0 .34375-1.78125 2.598 2.598 0 0 0-.75781-2.04687 2.9427 2.9427 0 0 0-2.02344-.67188 5.81655 5.81655 0 0 0-2.57812.60938 13.28556 13.28556 0 0 0-2.60938 1.73437l-2.625-3.10937a17.156 17.156 0 0 1 2.79688-2.03125 10.28927 10.28927 0 0 1 2.42187-.91406 12.43951 12.43951 0 0 1 2.9375-.32032 8.70354 8.70354 0 0 1 3.78125.78125 6.039 6.039 0 0 1 2.54688 2.1875 5.81717 5.81717 0 0 1 .90625 3.21875 7.88871 7.88871 0 0 1-.55469 2.96094 11.39776 11.39776 0 0 1-1.71875 2.83594 42.0206 42.0206 0 0 1-4.10156 4.14062l-2.9375 2.76563v.21875h9.9531zm18.26565 0H459.1709v-3.35938l5.73437-5.79687q2.54591-2.60889 3.32813-3.61719a7.97052 7.97052 0 0 0 1.125-1.86719 4.76161 4.76161 0 0 0 .34375-1.78125 2.598 2.598 0 0 0-.75781-2.04687 2.9427 2.9427 0 0 0-2.02344-.67188 5.81659 5.81659 0 0 0-2.57813.60938 13.28581 13.28581 0 0 0-2.60937 1.73437l-2.625-3.10937a17.15642 17.15642 0 0 1 2.79687-2.03125 10.28935 10.28935 0 0 1 2.42188-.91406 12.43945 12.43945 0 0 1 2.9375-.32032 8.70354 8.70354 0 0 1 3.78125.78125 6.03892 6.03892 0 0 1 2.54687 2.1875 5.81708 5.81708 0 0 1 .90625 3.21875 7.8887 7.8887 0 0 1-.55468 2.96094 11.39776 11.39776 0 0 1-1.71875 2.83594 42.021 42.021 0 0 1-4.10157 4.14062l-2.9375 2.76563v.21875h9.95313z" class="cls-1"/></svg>