<svg xmlns="http://www.w3.org/2000/svg" role="img" viewBox="-5.90 30.86 410.54 182.29"><title>KubeCon_NA_2021_co-los-wasm-graphics_white-logo.svg</title><defs><style>.cls-2{fill:#fff}</style></defs><path fill="none" d="M386.374 170.819h4.241l-2.12-5.176-2.121 5.176zm-149.71189-6.11111h-3.48828v4.58325h3.55664c1.71 0 2.69092-.912 2.69092-2.25745v-.04553c0-1.50501-1.04883-2.28027-2.75928-2.28027zm110.12305 0h-3.48877v4.58325h3.55713c1.71 0 2.69091-.912 2.69091-2.25745v-.04553c0-1.50501-1.04931-2.28027-2.75927-2.28027zM236.96631 82.30505a5.13214 5.13214 0 0 0 3.93848-1.7489 6.44383 6.44383 0 0 0 0-8.50415 5.28174 5.28174 0 0 0-7.87647 0 6.44235 6.44235 0 0 0 0 8.50415 5.13111 5.13111 0 0 0 3.93799 1.7489zM327.387 72.639l-2.35 5.421h4.673l-2.323-5.421zm-36.45 98.18h4.241l-2.12-5.176-2.121 5.176zm-73.13427-6.31631a4.77358 4.77358 0 0 0-4.78857 4.97094v.04566a4.8495 4.8495 0 0 0 4.83447 5.01635 4.77355 4.77355 0 0 0 4.78858-4.97082v-.04553a4.84963 4.84963 0 0 0-4.83448-5.0166zm63.72608-83.87989a5.477 5.477 0 0 0 1.53564-4.19189 5.61214 5.61214 0 0 0-1.53564-4.23194 6.56337 6.56337 0 0 0-4.7124-1.48193h-2.32276v11.34754h2.64307a6.17652 6.17652 0 0 0 4.39209-1.44178z"/><path d="M71.36523 164.05713H44.31787l41.44629 41.44629q20.72388-20.72314 41.44727-41.44629h-55.8462zm-28.00439-55.98682V80.38049Q22.686 101.06573 2 121.73938q20.68067 20.68048 41.36084 41.36072v-55.02979zm95.33057-16.92505c-1.16162-1.17126-1.82666-1.34326-3.22364-.17627a12.92284 12.92284 0 0 1-8.11572 3.02662v69.92114q20.0669-20.06031 40.15283-40.10144c1.37891-1.37537 1.77149-2.15308.14112-3.75525-9.73-9.5586-19.34961-19.22986-28.95459-28.9148zM99.37012 80.06567H113.46a12.70464 12.70464 0 0 1 3.00977-8.0083c1.30664-1.54419.89111-2.251-.30274-3.43506q-14.24051-14.12274-28.34769-28.37915c-1.65918-1.68652-2.5459-1.87646-4.34034-.07348q-19.87719 19.97259-39.8042 39.896h55.69532zM99.37 120.153v-10.601l13.25 13.25 2.74 2.74V92.058H81.875l16.013 16.012H87.265l-15.9-15.922-.09-.09h-15.9v15.922l.09.09 15.9 15.9v10.6l-15.99-15.989v33.484h33.462l-2.739-2.74-13.25-13.273h10.599l7.95 7.95 7.973 7.973.068.09h15.922v-15.923l-.09-.09-7.95-7.949-7.95-7.95zm241.955 4.037h4.833l-2.417-5.898-2.416 5.898z" class="cls-2"/><path d="M191.26221 98.61426v47.30395H397V98.61426zm45.45752 33.31982h-3.48243l-4.10546-11.90137-4.10547 11.90137H221.544l-6.211-18.31982h4.28808l3.76758 12.31738 4.08008-12.36963h3.42969l4.08008 12.36963 3.76757-12.31738h4.1836zm20.86914-.12988h-3.81934v-1.50732a5.35671 5.35671 0 0 1-4.21 1.76708c-2.624 0-4.78125-1.50732-4.78125-4.26171v-.05176c0-3.04053 2.3125-4.44385 5.61328-4.44385a9.89356 9.89356 0 0 1 3.40332.57178v-.23389c0-1.63672-1.01269-2.54639-2.98828-2.54639a10.24588 10.24588 0 0 0-3.8457.75342l-.98731-3.01416a12.28613 12.28613 0 0 1 5.40528-1.11767 6.42882 6.42882 0 0 1 4.70312 1.55957 6.0707 6.0707 0 0 1 1.50684 4.44336zm15.56738-4.23584c0 3.09228-2.3125 4.4956-5.32715 4.4956a9.7531 9.7531 0 0 1-5.97656-2.105l1.68848-2.59814a7.879 7.879 0 0 0 4.3916 1.66309c1.14355 0 1.66308-.416 1.66308-1.03955v-.05225c0-.85742-1.35058-1.14307-2.88379-1.61084-1.94921-.57178-4.1582-1.48145-4.1582-4.18359v-.05225c0-2.83252 2.28711-4.41748 5.09375-4.41748a9.64115 9.64115 0 0 1 5.19727 1.61133l-1.50782 2.72851a8.24775 8.24775 0 0 0-3.76757-1.29931c-.96192 0-1.45508.41552-1.45508.96142v.05176c0 .77978 1.32519 1.14355 2.832 1.66309 1.94922.6499 4.21 1.585 4.21 4.13183zm26.04 4.23584h-3.9502v-7.76953c0-1.8711-.83105-2.83252-2.3125-2.83252s-2.39062.96142-2.39062 2.83252v7.76953h-3.9502v-7.76953c0-1.8711-.831-2.83252-2.3125-2.83252s-2.39062.96142-2.39062 2.83252v7.76953h-3.9502V117.876h3.9502v1.97461a4.97568 4.97568 0 0 1 4.10547-2.23438 4.16668 4.16668 0 0 1 3.92383 2.2085 5.73663 5.73663 0 0 1 4.57421-2.2085c2.93555 0 4.70313 1.7666 4.70313 5.11914zM331.5 122.709c0 5.11963-3.94922 9.09522-9.666 9.09522h-7.09472v-18.18996h7.09472c5.7168 0 9.666 3.92383 9.666 9.043zm17.751 9.09522l-1.66309-4.07959h-7.69238l-1.66309 4.07959h-4.0791l7.79492-18.31982h3.69043l7.7959 18.31982zm15.20312-7.25v7.25h-4.00195v-7.17188l-6.99024-11.01806h4.67774l4.33984 7.30176 4.417-7.30176h4.54786z" class="cls-2"/><path d="M248.59863 127.59473v.05175c0 1.06543.88282 1.689 2.15625 1.689 1.84473 0 3.09278-1.01318 3.09278-2.44238v-.70166a6.12451 6.12451 0 0 0-2.52149-.52c-1.68847-.00005-2.72754.67573-2.72754 1.92329zm73.23537-10.36866h-3.09277v10.96631h3.09277a5.18331 5.18331 0 0 0 5.48243-5.43115v-.05223a5.2242 5.2242 0 0 0-5.48243-5.48293zM202.79 85.96289a9.72173 9.72173 0 0 0 7.48926-3.57776l-2.66992-2.75036a6.14565 6.14565 0 0 1-5.02 2.42981 5.19738 5.19738 0 0 1-3.81788-1.57532 5.64551 5.64551 0 0 1-1.57568-4.17847 5.34906 5.34906 0 0 1 1.66895-4.13879 5.72614 5.72614 0 0 1 4.01855-1.535 6.06938 6.06938 0 0 1 4.91309 2.4563l2.58984-2.937a9.85972 9.85972 0 0 0-7.68994-3.49768 9.57718 9.57718 0 0 0-6.95508 2.77673 9.86357 9.86357 0 0 0-.05371 13.80432 9.747 9.747 0 0 0 7.10252 2.72322zm22.896-3.92489h-7.957V67.086h-4.166v18.663h12.123v-3.711zm11.26712 3.89779a9.58915 9.58915 0 0 0 6.96876-2.76306 9.76519 9.76519 0 0 0 0-13.75061 10.1682 10.1682 0 0 0-13.9375 0 9.76636 9.76636 0 0 0 0 13.75061 9.58754 9.58754 0 0 0 6.96874 2.76306zm-3.9248-13.88379a5.28174 5.28174 0 0 1 7.87647 0 6.44383 6.44383 0 0 1 0 8.50415 5.30858 5.30858 0 0 1-7.87647 0 6.44235 6.44235 0 0 1 0-8.50415zM258.019 85.93579a7.90325 7.90325 0 0 0 5.7417-2.17578 8.29184 8.29184 0 0 0 2.24219-6.23438V67.08582h-4.165v10.30639a5.54656 5.54656 0 0 1-1.02783 3.53784 3.37459 3.37459 0 0 1-2.791 1.29493 3.41015 3.41015 0 0 1-2.80322-1.29493 5.49147 5.49147 0 0 1-1.041-3.53784V67.08582h-4.16552v10.43981a8.26638 8.26638 0 0 0 2.25634 6.2212 7.91976 7.91976 0 0 0 5.75334 2.18896zm26.63383-2.7229a9.17486 9.17486 0 0 0 2.60352-6.88867 8.749 8.749 0 0 0-2.67041-6.79541q-2.66969-2.443-7.6626-2.443h-6.5957v18.66358h6.38136q5.34081 0 7.94383-2.5365zM274.49365 70.717h2.32276a6.56337 6.56337 0 0 1 4.7124 1.48193 5.61214 5.61214 0 0 1 1.53564 4.23194 5.477 5.477 0 0 1-1.53564 4.19189 6.17652 6.17652 0 0 1-4.39209 1.44178h-2.64307zm27.58135 3.338l8.891 11.694h4.166V67.086h-4.166v12.015l-9.158-12.015h-3.898v18.663h4.165V74.055zm21.38643 7.66277h7.82373l1.73535 4.03162h4.43261l-8.064-18.66357h-4.03174l-8.064 18.66357h4.43261zm3.92529-9.07837l2.32328 5.42017h-4.67334zM341.992 85.749h4.165V70.69h5.287v-3.604h-14.739v3.604h5.287v15.059zm12.495-18.663h4.166V85.75h-4.166zm17.409 18.663l7.503-18.663h-4.513l-4.753 11.882-4.752-11.882h-4.513l7.504 18.663h3.524zm23.469-3.684h-9.585v-3.872h8.357v-3.551h-8.357v-3.845h9.291v-3.711h-13.457v18.663h13.751v-3.684zm-192.842 89.301l-7.479-9.828h-3.238V177.5h3.466v-10.147l7.73 10.147h2.987v-15.962h-3.466v9.828zm15.32563-10.10135a8.25386 8.25386 0 0 0-8.50537 8.25464v.04553a8.48628 8.48628 0 0 0 16.96485-.04553v-.04566a8.17827 8.17827 0 0 0-8.45948-8.20898zm4.78858 8.30017a4.77355 4.77355 0 0 1-4.78858 4.97082 4.8495 4.8495 0 0 1-4.83447-5.01635v-.04566a4.77358 4.77358 0 0 1 4.78857-4.97094 4.84963 4.84963 0 0 1 4.83448 5.0166zm20.34131-2.7135v-.04566a5.01129 5.01129 0 0 0-1.36817-3.64843 6.36084 6.36084 0 0 0-4.65137-1.6189h-7.29687V177.5h3.51172v-5.10767h2.75879L239.353 177.5h4.10449l-3.89941-5.70044a4.95683 4.95683 0 0 0 3.42044-4.94824zm-3.55713.18237c0 1.34546-.981 2.25745-2.69092 2.25745h-3.55664v-4.58325h3.48828c1.71045 0 2.75928.77526 2.75928 2.28027zm5.81561-2.25769h4.857V177.5h3.511v-12.724h4.858v-3.238h-13.226v3.238zm26.133 3.079h-6.475v-6.317h-3.512V177.5h3.512v-6.407h6.475v6.407h3.512v-15.962h-3.512v6.317zm20.11438-6.43056L284.64355 177.5h3.58008l1.459-3.58008h6.74951L297.8916 177.5h3.6714l-6.84082-16.07556zm-.54786 9.39465l2.1211-5.17627 2.1206 5.17627zM312.236 168.288l-4.195-6.75h-3.786V177.5h3.444v-10.352l4.446 6.749h.091l4.492-6.818V177.5h3.489v-15.962h-3.785l-4.196 6.75zm15.531 2.736h7.524V167.9h-7.524v-3.238h8.55v-3.124h-12.039V177.5h12.154v-3.124h-8.665v-3.352zm25.33456-4.17268v-.04566a5.01128 5.01128 0 0 0-1.36816-3.64843 6.36084 6.36084 0 0 0-4.65137-1.6189h-7.29687V177.5h3.51123v-5.10767h2.75927l3.42041 5.10767h4.1045l-3.89942-5.70044a4.95739 4.95739 0 0 0 3.42041-4.94824zm-3.55713.18237c0 1.34546-.98095 2.25745-2.69091 2.25745h-3.55713v-4.58325h3.48877c1.71 0 2.75927.77526 2.75927 2.28027zM356.66 161.538h3.512V177.5h-3.512zm15.32389 12.99764a4.741 4.741 0 0 1-4.62891-5.01635v-.04566a4.72937 4.72937 0 0 1 4.62891-4.97094 5.89073 5.89073 0 0 1 4.082 1.80139l2.23486-2.57666a8.23705 8.23705 0 0 0-6.29394-2.46277 8.1126 8.1126 0 0 0-8.32276 8.25464v.04553a8.05693 8.05693 0 0 0 8.186 8.20886 8.1573 8.1573 0 0 0 6.54394-2.85034l-2.23437-2.25732a5.76151 5.76151 0 0 1-4.19573 1.86962zm14.93701-13.1112L380.08057 177.5h3.57959l1.45947-3.58008h6.74951l1.45947 3.58008H397l-6.84082-16.07556zm-.54688 9.39465l2.12061-5.17627 2.1206 5.17627z" class="cls-2"/></svg>