<svg xmlns="http://www.w3.org/2000/svg" role="img" viewBox="2.10 2.10 59.73 59.73"><title>light.svg</title><style>svg {enable-background:new 0 0 512 512}</style><g xmlns="http://www.w3.org/2000/svg" data-name="Layer 12"><circle cx="32" cy="32" r="28.75" fill="#df642b" data-original="#0fbcf9"/><path d="M32 17.47a.76.76 0 0 0 .75-.75v-3.24a.75.75 0 0 0-1.5 0v3.24a.76.76 0 0 0 .75.75zm13.61 1.34l-2.29 2.29a.75.75 0 0 0 0 1.06.74.74 0 0 0 .53.22.71.71 0 0 0 .53-.22l2.29-2.29a.74.74 0 0 0 0-1.06.75.75 0 0 0-1.06 0zM52 32.73h-3.24a.75.75 0 0 0 0 1.5H52a.75.75 0 0 0 0-1.5zm-7.62 12.08a.74.74 0 0 0-1.06 0 .75.75 0 0 0 0 1.06l2.29 2.28a.74.74 0 0 0 .53.22.73.73 0 0 0 .53-.22.74.74 0 0 0 0-1.06zm-24.76 0l-2.29 2.28a.74.74 0 0 0 0 1.06.73.73 0 0 0 .53.22.74.74 0 0 0 .53-.22l2.29-2.28a.75.75 0 0 0 0-1.06.74.74 0 0 0-1.06 0zm-4.38-12.08H12a.75.75 0 0 0 0 1.5h3.24a.75.75 0 1 0 0-1.5zm4.38-10.57a.71.71 0 0 0 .53.22.74.74 0 0 0 .53-.22.75.75 0 0 0 0-1.06l-2.29-2.29a.75.75 0 0 0-1.06 0 .74.74 0 0 0 0 1.06zM32 19.83a13.65 13.65 0 0 0-8.06 24.68v6a.75.75 0 0 0 .75.75h14.62a.75.75 0 0 0 .75-.75v-6A13.65 13.65 0 0 0 32 19.83zm6.89 23.68a.76.76 0 0 0-.33.62v5.64H25.44v-5.64a.76.76 0 0 0-.33-.62 12.16 12.16 0 1 1 13.78 0z" data-original="#ffffff" fill="#fff"/></g></svg>