<svg xmlns="http://www.w3.org/2000/svg" role="img" viewBox="-38.62 -37.62 1956.24 473.24"><title>Logo-black.svg</title><path d="M243.344 394.664l-52.749.001v-36.898c-22.728 27.382-53.278 41.126-91.4392 41.126-28.6474 0-52.3264-8.14-71.037-24.422C9.30246 358.19 0 336.411 0 309.24c0-27.17 9.93672-47.575 30.0216-61.107 19.9791-13.533 47.0409-20.299 81.1854-20.299h74.737v-10.361c0-36.791-20.297-55.082-60.995-55.082-25.4761 0-52.0092 9.304-79.5995 28.123l.5286-54.236c26.6388-14.801 55.7089-22.202 87.3159-22.202 32.348 0 58.775 8.247 79.283 24.739 20.507 16.493 30.761 42.395 30.761 77.707v178.142h.106zM185.415 291.69v-23.364h-65.117c-41.6499 0-62.5805 13.215-62.5805 39.54 0 13.533 5.1798 23.893 15.5394 30.977 10.3595 7.083 24.7361 10.678 43.1291 10.678 18.394 0 34.568-5.181 48.31-15.541 13.848-10.573 20.719-24.528 20.719-42.29zm243.337 107.206c-38.267 0-71.143-13.109-98.733-39.223-27.59-26.114-41.332-60.368-41.332-102.657 0-42.289 14.376-76.755 43.129-103.185 28.753-26.537 63.849-39.752 105.181-39.752 41.333 0 76.323 14.378 104.864 43.135l-34.144 42.078c-23.785-20.828-47.675-31.189-71.883-31.189-24.101 0-45.032 8.035-62.791 24.211-17.759 16.07-26.639 36.897-26.639 62.376s8.774 47.047 26.322 64.703c17.547 17.655 39.218 26.536 64.905 26.536 25.688 0 49.895-11.735 72.623-35.311l34.144 37.426c-33.298 33.831-71.882 50.852-115.646 50.852zm383.407-4.229H759.41V357.77c-22.728 27.382-53.278 41.126-91.439 41.126-28.648 0-52.327-8.141-71.037-24.422-18.817-16.281-28.119-38.06-28.119-65.231 0-27.171 9.937-47.575 30.022-61.107 19.979-13.533 47.04-20.299 81.185-20.299h74.948v-10.361c0-36.792-20.296-55.082-60.995-55.082-25.476 0-52.009 9.304-79.599 28.123l-25.793-36.369c33.404-26.642 71.354-40.069 113.743-40.069 32.348 0 58.775 8.246 79.283 24.739 20.508 16.493 30.761 42.395 30.761 77.706v178.143h-.211zm-57.823-102.974v-23.364h-65.118c-41.649 0-62.58 13.215-62.58 39.54 0 13.532 5.18 23.893 15.54 30.977 10.359 7.083 24.736 10.678 43.129 10.678 18.394 0 34.567-5.181 48.31-15.542 13.848-10.572 20.719-24.527 20.719-42.289zM877.068 62.9051c-7.188-7.2949-10.888-15.9642-10.888-26.0078 0-10.0437 3.594-18.7129 10.888-26.0078C884.256 3.59464 892.925.00006 902.861.00006c9.937 0 18.605 3.59458 25.793 10.88944 7.189 7.2949 10.889 15.9641 10.889 26.0078 0 10.0436-3.595 18.7129-10.889 26.0078-7.188 7.2948-15.856 10.8894-25.793 10.8894-9.936 0-18.605-3.5946-25.793-10.8894zm54.229 331.7579h-57.929V138.708h57.929v255.955zm260.583-82.676c0 26.324-9.51 47.363-28.44 63.222-18.92 15.752-43.23 23.682-72.83 23.682-19.98 0-40.7-3.595-62.26-10.89-15.86-5.392-30.448-12.369-43.662-20.933v-61.531c26.742 21.145 53.702 41.655 107.402 43.03 13.11.317 23.47-3.066 30.97-9.093 7.61-6.026 11.42-13.743 11.42-23.153 0-13.849-18.29-26.325-54.76-37.426-2.75-1.057-4.86-1.691-6.24-2.114-57.18-15.647-85.832-41.549-85.832-78.023 0-25.691 9.937-46.201 29.702-61.637 19.77-15.435 45.56-23.153 77.28-23.153 23.25 0 45.56 5.075 66.91 15.119l1.27 56.138c-22.31-15.012-46.62-22.413-72.73-22.413-13.74 0-24.95 2.537-33.61 7.506-8.57 5.075-12.9 12.581-12.9 22.625 0 8.986 4.44 15.647 13.42 19.77 6.24 3.066 14.91 6.026 26.11 8.881 11.21 2.749 21.15 5.497 29.71 8.352 8.56 2.749 17.02 5.92 25.05 9.409 8.14 3.489 16.81 8.352 26.11 14.59 18.61 12.264 27.91 31.717 27.91 58.042zm276.22 45.567c-27.59 27.594-62.05 41.337-103.39 41.337-41.33 0-75.79-13.743-103.38-41.337-27.59-27.594-41.33-61.319-41.33-101.177 0-39.857 13.74-73.583 41.33-101.176 27.59-27.594 62.05-41.338 103.38-41.338 41.34 0 75.8 13.744 103.39 41.338 27.59 27.593 41.33 61.319 41.33 101.176 0 39.858-13.74 73.583-41.33 101.177zm-165.65-35.946c16.39 16.81 37.1 25.268 62.26 25.268 25.16 0 45.88-8.458 62.27-25.268 16.38-16.81 24.52-38.589 24.52-65.231 0-26.642-8.14-48.421-24.52-65.231-16.39-16.81-37.11-25.267-62.27-25.267-25.16 0-45.87 8.457-62.26 25.267-16.38 16.81-24.52 38.589-24.52 65.231 0 26.642 8.14 48.421 24.52 65.231zm319.03-226.4559v22.8359h72.3v46.835h-72.3v229.841h-57.93V164.823h-34.68v-46.835h34.68V96.6322c0-29.0737 8.66-52.227 26.11-69.4598 17.44-17.1271 38.37-25.69059 63-25.69059 3.07 0 6.13.10573 9.09.4229l-1.16 50.00679c-12.37 0-22.1 3.9118-28.97 11.7352-6.76 7.8235-10.14 18.2901-10.14 31.5054z"/><path d="M1782.27 164.824v140.4c0 13.215 3.49 23.682 10.36 31.505 6.87 7.824 16.49 11.735 28.96 11.735 12.37 0 24.31-6.026 35.63-18.184l23.78 41.126c-20.3 18.396-42.81 27.594-67.44 27.594-24.63 0-45.67-8.564-63.01-25.796-17.44-17.128-26.11-40.281-26.11-69.46v-138.92h-34.67v-46.835h34.67V31.1909h57.93v86.7981h72.31v46.835h-72.41z"/></svg>