<svg xmlns="http://www.w3.org/2000/svg" role="img" viewBox="2.10 2.10 59.73 59.73"><title>Meet.svg</title><style>svg {enable-background:new 0 0 512 512}</style><linearGradient xmlns="http://www.w3.org/2000/svg" id="a" x1="3.25" x2="60.75" y1="32" y2="32" gradientUnits="userSpaceOnUse"><stop offset="0" stop-color="#5bb4f6"/><stop offset=".004" stop-color="#df642b"/><stop offset="1" stop-color="#df642b"/><stop offset="1" stop-color="#2191e5"/></linearGradient><path fill="url(#a)" d="M32 3.25A28.75 28.75 0 0 0 3.25 32 28.75 28.75 0 0 0 32 60.75 28.75 28.75 0 0 0 60.75 32 28.75 28.75 0 0 0 32 3.25zM43.88 40.7a12.72 12.72 0 0 0-8.54-10.35 6.45 6.45 0 0 0 2.32-2.59 9.69 9.69 0 0 1 1.2-.09c5 0 9.45 4.71 9.45 10.07 0 1.26-1.65 2.34-4.43 2.96zM32 46.38c-6 0-10.53-1.69-10.53-3.92 0-5.93 4.92-11.14 10.53-11.14s10.53 5.21 10.53 11.14C42.52 44.69 38 46.38 32 46.38zm-11.9-5.69c-2.77-.61-4.41-1.69-4.41-2.95 0-5.36 4.42-10.07 9.45-10.07a11.69 11.69 0 0 1 1.18.08 6.41 6.41 0 0 0 2.32 2.6 12.72 12.72 0 0 0-8.54 10.34zm5-23.07a4.28 4.28 0 0 1 3.62 2A6.28 6.28 0 0 0 25.69 25a6.62 6.62 0 0 0 .1 1.1 3.49 3.49 0 0 1-.65.05 4.28 4.28 0 0 1 0-8.55zm13.72 0a4.28 4.28 0 0 1 0 8.55 3.71 3.71 0 0 1-.67-.05 6.62 6.62 0 0 0 .1-1.1 6.31 6.31 0 0 0-3.06-5.4 4.3 4.3 0 0 1 3.67-2zM36.79 25a4.8 4.8 0 1 1-4.8-4.8 4.8 4.8 0 0 1 4.8 4.8z" data-original="url(#linear-gradient)" xmlns="http://www.w3.org/2000/svg" data-name="Layer 27"/></svg>