<svg xmlns="http://www.w3.org/2000/svg" role="img" viewBox="6.51 66.01 389.48 112.98"><title>OpsMx-01.svg</title><defs><clipPath id="clip-path"><path fill="none" d="M-33.083 -43.372H436.09799999999996V288.372H-33.083z"/></clipPath><style>.cls-2{clip-path:url(#clip-path)}</style></defs><g class="cls-2"><path fill="#fbc300" fill-rule="evenodd" d="M14.16,111.44715v9.21107c3.4861-4.08284,4.6643-18.50646,23.70241-27.94426,12.61984-6.25531,8.67854-2.13141,10.80865.94491,2.38566-2.99157,7.0766-7.24566,9.05817-10.65574-2.0969-4.55683-7.09452-6.15048-7.93721-9.2849a3,3,0,0,0-.60417.66489c-4.92028,5.83331-.30667,2.26246-10.75666,6.98967-20.32508,9.1936-21.5225,25.50574-24.27119,30.07436"/></g><g class="cls-2"><path fill="#6396d0" fill-rule="evenodd" d="M102.67981,119.25942l-1.197-.59456c2.28387,11.59586-6.37545,20.96419-11.66313,25.97492a37.20626,37.20626,0,0,1-10.88947,7.45711c-.86454.41064-6.12645,2.58181-6.99273,2.612-4.383.16033-.76318.519-2.15893-.92613l-1.65524-2.86881c-3.02347,4.85039-6.15179,6.48335-9.09269,10.924,2.88848,4.46552,6.54582,6.51044,10.20535,9.194,2.22621-5.877-2.3992-2.89984,4.30039-5.91152,2.90508-1.30576,4.767-1.54559,7.73319-3.15933,24.59011-13.38523,19.90834-33.31364,21.41024-42.70164"/></g><g class="cls-2"><path fill="#cf9c0a" fill-rule="evenodd" d="M14.16,133.28025l1.17951,2.49532c8.73883,21.76932,16.16623,28.167,43.38749,32.07951l-.41195-11.11663c-16.76167-1.19786-30.16392-7.69606-38.01725-20.481-2.35595-3.83689-3.5704-9.36528-6.1378-12.0218Z"/></g><g class="cls-2"><path fill="#4270ab" fill-rule="evenodd" d="M101.48283,118.66486l1.197.59456c-.29313-24.39-18.2994-42.35871-43.16338-42.10795-1.08515,2.653-.82.64741-1.06025,4.94213a22.08276,22.08276,0,0,0,.5714,5.74113c22.87151,1.90951,36.698,11.82173,42.45525,30.83013"/></g><g class="cls-2"><path d="M142.96738,154.87833a25.86607,25.86607,0,0,1-20.56447-9.26525q-7.96628-9.26371-7.966-26.3659,0-17.10022,7.966-26.34407a25.89339,25.89339,0,0,1,20.56447-9.24384,25.95745,25.95745,0,0,1,20.58632,9.24384q7.98854,9.24339,7.98788,26.34407,0,17.10153-7.98788,26.3659a25.93125,25.93125,0,0,1-20.58632,9.26525m.02141-6.71052a16.23121,16.23121,0,0,0,14.34586-7.9075q5.15772-7.90664,5.15794-20.99128,0-13.04076-5.15794-20.96987-5.15772-7.9289-14.34586-7.9289-9.14576,0-14.32488,7.9289-5.17933,7.92891-5.17891,20.96988,0,13.084,5.17891,20.99128,5.17869,7.90794,14.32488,7.90749"/></g><g class="cls-2"><path d="M189.33553,171.63344h-8.053v-67.1493h8.053v8.399a21.576,21.576,0,0,1,4.83074-6.06091,17.22372,17.22372,0,0,1,5.1802-2.72815,18.85739,18.85739,0,0,1,5.94515-.9519,18.39643,18.39643,0,0,1,10.22939,3.00905,19.45724,19.45724,0,0,1,7.19106,8.983,33.79355,33.79355,0,0,1,2.55734,13.421q0,11.04018-5.35538,18.33521-5.35628,7.29657-15.016,7.295a19.222,19.222,0,0,1-5.87962-.88725,14.78526,14.78526,0,0,1-4.919-2.64122,23.64945,23.64945,0,0,1-4.7639-6.25531v27.23172Zm0-42.948q0,8.227,3.58918,13.50754a11.52952,11.52952,0,0,0,10.11273,5.28244,12.4033,12.4033,0,0,0,9.89343-4.67565q3.93888-4.67675,3.94-13.98457,0-10.86654-4.15929-15.08807a12.98835,12.98835,0,0,0-9.499-4.22088,12.42392,12.42392,0,0,0-7.202,2.3162,13.79557,13.79557,0,0,0-5.01159,6.88395,28.94118,28.94118,0,0,0-1.66349,9.979"/></g><g class="cls-2"><path d="M232.32678,140.0716h8.05253v.173a6.569,6.569,0,0,0,2.36251,5.17366q2.36165,2.05693,7.98745,2.05627A12.54092,12.54092,0,0,0,258.739,145.05a7.12657,7.12657,0,0,0,3.07064-5.71493q0-4.45788-6.02378-6.3204l-4.08722-1.25552-2.71023-.86628-5.55067-1.73169q-9.5101-3.50642-9.509-11.64565a13.39476,13.39476,0,0,1,4.60926-10.04416q4.60861-4.32944,13.69974-4.32966,8.96033,0,12.75135,3.70146a11.26283,11.26283,0,0,1,3.791,8.20412v.17343h-8.09578v-.17343a4.23525,4.23525,0,0,0-2.42411-3.80937,12.97872,12.97872,0,0,0-6.45584-1.38526q-4.80582,0-7.35749,2.01259a6.09894,6.09894,0,0,0-2.55254,4.95741,4.57264,4.57264,0,0,0,1.657,3.65866,15.469,15.469,0,0,0,5.57207,2.532l3.87271,1.083,2.79631.82259a63.92291,63.92291,0,0,1,7.29371,2.38129,18.14159,18.14159,0,0,1,2.90376,1.77493,9.55547,9.55547,0,0,1,2.99071,3.76656,12.73336,12.73336,0,0,1,.96807,5.15182,15.3024,15.3024,0,0,1-4.89147,11.51636q-4.891,4.67607-14.286,4.67609a23.97938,23.97938,0,0,1-9.8694-1.77538,15.6,15.6,0,0,1-6.24877-4.91373,11.84612,11.84612,0,0,1-2.32668-7.25178v-.17343Z"/></g><g class="cls-2"><path d="M287.873 152.843L280.47 152.843 280.47 85.651 289.093 85.651 309.931 133.655 329.144 85.651 337.618 85.651 337.618 152.843 329.868 152.843 329.868 112.797 330.042 100.804 329.868 100.804 325.524 112.851 313.605 142.756 304.83 142.756 291.884 112.698 287.873 101.756 287.7 101.756 287.873 112.676 287.873 152.843z"/></g><g class="cls-2"><path d="M354.719 152.843L346.32 152.843 363.103 128.346 347.316 104.484 356.573 104.484 367.822 121.459 379.451 104.484 387.796 104.484 371.938 127.67 388.618 152.843 379.31 152.843 367.219 134.568 354.719 152.843z"/></g></svg>