<svg xmlns="http://www.w3.org/2000/svg" role="img" viewBox="42.81 44.81 477.88 177.88"><title>Pipekit horizontal logo white BG - dark font V2.svg</title><path fill="#fff" d="M0 0h572v261H0z"/><path fill="url(#paint0_linear_407_154)" fill-rule="evenodd" d="M141.605 214L52 153.082 141.605 54l87.65 99.082L141.605 214zm-71.3694-69.423l71.3904-43.553 69.482 43.346-69.568-78.6402-71.3044 78.8472zM213.061 154.81l-71.505 49.696-73.0857-49.687 73.1097-44.601 71.481 44.592z" clip-rule="evenodd"/><path fill="#01131B" d="M294.593 137.333c2.209 0 4.152-.293 5.829-.88 1.703-.586 3.127-1.4 4.272-2.44 1.171-1.066 2.049-2.333 2.634-3.8.586-1.466.879-3.08.879-4.84 0-3.653-1.132-6.506-3.394-8.56-2.236-2.053-5.642-3.08-10.22-3.08h-9.181v23.6h9.181zm0-29.72c3.62 0 6.76.427 9.421 1.28 2.688.827 4.911 2.014 6.668 3.56 1.756 1.547 3.06 3.414 3.91 5.6.88 2.187 1.318 4.627 1.318 7.32 0 2.667-.465 5.107-1.396 7.32-.932 2.214-2.303 4.12-4.113 5.72-1.783 1.6-4.004 2.854-6.665 3.76-2.635.88-5.683 1.32-9.143 1.32h-9.181v21.44h-7.704v-57.32h16.885zm36.659 16.8v40.52h-7.106v-40.52h7.106zm1.517-12.72c0 .694-.146 1.347-.439 1.96-.266.587-.638 1.12-1.117 1.6-.453.454-.999.814-1.638 1.08-.612.267-1.263.4-1.955.4-.692 0-1.345-.133-1.957-.4-.586-.266-1.104-.626-1.556-1.08-.452-.48-.813-1.013-1.079-1.6-.266-.613-.399-1.266-.399-1.96 0-.693.133-1.346.399-1.96.266-.64.627-1.186 1.079-1.64.452-.48.97-.853 1.556-1.12.612-.266 1.265-.4 1.957-.4.692 0 1.343.134 1.955.4.639.267 1.185.64 1.638 1.12.479.454.851 1 1.117 1.64.293.614.439 1.267.439 1.96zm17.303 43.48c1.304 1.76 2.729 3 4.272 3.72 1.544.72 3.274 1.08 5.19 1.08 3.779 0 6.68-1.346 8.702-4.04 2.023-2.693 3.034-6.533 3.034-11.52 0-2.64-.239-4.906-.718-6.8-.453-1.893-1.118-3.44-1.996-4.64-.879-1.226-1.957-2.12-3.235-2.68-1.277-.56-2.727-.84-4.35-.84-2.315 0-4.352.534-6.109 1.6-1.729 1.067-3.326 2.574-4.79 4.52v19.6zm-.358-24.48c1.703-2.106 3.672-3.8 5.908-5.08 2.235-1.28 4.79-1.92 7.664-1.92 2.342 0 4.457.454 6.347 1.36 1.889.88 3.5 2.2 4.831 3.96 1.33 1.734 2.354 3.894 3.073 6.48.718 2.587 1.078 5.56 1.078 8.92 0 2.987-.399 5.774-1.197 8.36-.799 2.56-1.957 4.787-3.474 6.68-1.49 1.867-3.327 3.347-5.509 4.44-2.156 1.067-4.59 1.6-7.304 1.6-2.475 0-4.604-.413-6.387-1.24-1.757-.853-3.315-2.026-4.672-3.52v17.92h-7.144v-54.24h4.27c1.011 0 1.638.494 1.877 1.48l.639 4.8zm65.031 9.56c0-1.653-.24-3.16-.719-4.52-.452-1.386-1.13-2.573-2.035-3.56-.878-1.013-1.957-1.786-3.234-2.32-1.277-.56-2.727-.84-4.35-.84-3.407 0-6.109 1-8.105 3-1.969 1.974-3.193 4.72-3.672 8.24h22.115zm5.748 19c-.878 1.067-1.928 2-3.153 2.8-1.224.774-2.542 1.414-3.952 1.92-1.384.507-2.821.88-4.312 1.12-1.49.267-2.966.4-4.43.4-2.794 0-5.376-.466-7.744-1.4-2.342-.96-4.379-2.346-6.109-4.16-1.703-1.84-3.034-4.106-3.992-6.8-.958-2.693-1.437-5.786-1.437-9.28 0-2.826.426-5.466 1.278-7.92.878-2.453 2.129-4.573 3.752-6.36 1.623-1.813 3.607-3.226 5.949-4.24 2.342-1.04 4.977-1.56 7.904-1.56 2.422 0 4.657.414 6.706 1.24 2.076.8 3.859 1.974 5.35 3.52 1.516 1.52 2.7 3.414 3.551 5.68.852 2.24 1.278 4.8 1.278 7.68 0 1.12-.119 1.867-.359 2.24-.239.374-.691.56-1.357.56H392.39c.08 2.56.426 4.787 1.038 6.68.639 1.894 1.517 3.48 2.635 4.76 1.117 1.254 2.448 2.2 3.992 2.84 1.543.614 3.273.92 5.189.92 1.783 0 3.314-.2 4.592-.6 1.304-.426 2.421-.88 3.353-1.36.931-.48 1.703-.92 2.315-1.32.639-.426 1.184-.64 1.636-.64.585 0 1.038.227 1.357.68l1.996 2.6zm16.513-53.24v34.68h1.836c.532 0 .972-.066 1.318-.2.373-.16.758-.466 1.157-.92l12.774-13.72c.373-.453.759-.8 1.158-1.04.426-.266.985-.4 1.677-.4h6.426l-14.889 15.88c-.718.907-1.49 1.614-2.315 2.12.479.32.905.694 1.277 1.12.4.4.772.867 1.118 1.4l15.808 20h-6.348c-.612 0-1.144-.093-1.597-.28-.426-.213-.798-.586-1.117-1.12l-13.293-16.6c-.399-.56-.798-.92-1.197-1.08-.373-.186-.958-.28-1.757-.28h-2.036v19.36h-7.145v-58.92h7.145zm40.902 18.4v40.52h-7.106v-40.52h7.106zm1.517-12.72c0 .694-.146 1.347-.439 1.96-.266.587-.638 1.12-1.117 1.6-.453.454-.999.814-1.638 1.08-.612.267-1.263.4-1.955.4-.692 0-1.345-.133-1.957-.4-.586-.266-1.104-.626-1.556-1.08-.452-.48-.813-1.013-1.079-1.6-.266-.613-.399-1.266-.399-1.96 0-.693.133-1.346.399-1.96.266-.64.627-1.186 1.079-1.64.452-.48.97-.853 1.556-1.12.612-.266 1.265-.4 1.957-.4.692 0 1.343.134 1.955.4.639.267 1.185.64 1.638 1.12.479.454.851 1 1.117 1.64.293.614.439 1.267.439 1.96zm22.573 53.88c-3.194 0-5.655-.893-7.385-2.68-1.703-1.786-2.554-4.36-2.554-7.72v-24.8h-4.871c-.425 0-.786-.12-1.078-.36-.293-.266-.439-.666-.439-1.2v-2.84l6.627-.84 1.636-12.52c.08-.4.254-.72.52-.96.292-.266.665-.4 1.117-.4h3.593v13.96h11.696v5.16h-11.696v24.32c0 1.707.412 2.974 1.237 3.8.825.827 1.889 1.24 3.193 1.24.745 0 1.384-.093 1.916-.28.559-.213 1.038-.44 1.437-.68.4-.24.733-.453.999-.64.293-.213.545-.32.758-.32.373 0 .706.227.999.68l2.076 3.4c-1.225 1.147-2.702 2.054-4.432 2.72-1.73.64-3.513.96-5.349.96z"/><defs><linearGradient id="paint0_linear_407_154" x1="141" x2="141" y1="54" y2="242.5" gradientUnits="userSpaceOnUse"><stop offset=".24" stop-color="#01131B"/><stop offset=".797" stop-color="#74DEFF"/></linearGradient></defs></svg>