<svg xmlns="http://www.w3.org/2000/svg" role="img" viewBox="176.10 28.60 2152.80 390.30"><title>Platform9_Logo_Horizontal_Full-Color (1).svg</title><style>svg {enable-background:new 0 0 2507 451.4}</style><style>.st0{fill:#1ea8e0}.st1{fill:#148cca}.st3{fill:#6bcdef}</style><path d="M2231.3 149.3c-31.7 0-57.4 25.1-57.4 55.9 0 28.7 22.9 53.3 51.2 56l-16.7 23c-2.4 3.4-2.8 7.6-1.1 11 1.8 3.5 5.4 5.5 9.6 5.5h8.5c4.9 0 10.1-2.7 13-6.6l36.3-51c1.5-2.1 3.4-5.3 4.5-7.4.9-1.8 9.1-17.7 9.1-29.6 0-31.8-25-56.8-57-56.8zm-27.6 56.1c0-14.8 12.4-26.8 27.5-26.8 15 0 27.2 12 27.2 26.8s-12.2 26.8-27.2 26.8c-14.8 0-27.5-12.3-27.5-26.8z" class="st0"/><path d="M1235.3 158.6c-2.3-6.2-7.1-6.9-9.1-6.9H1216c-5.8 0-8.3 4.8-9.1 6.5l-61 128.9c-2 3.7-2.1 7-.4 9.8 1.5 2.4 4 3.8 6.9 3.8h11.9c4.2 0 7.1-1.6 8.7-4.7.5-1.1.9-1.9 1.3-2.8l12.1-26 69.2.1 12.4 26.4c2 4.6 5.3 6.9 9.7 6.9h12.5c3 0 5.6-1.4 7.1-3.8s1.6-5.4.3-8.1l-62.3-130.1zm-36.5 82.1l22.3-47.2 22.1 47.2h-44.4zm-83.5 40.1c-.4-2.7-2-5.2-4.2-6.7-1.8-1.2-3.9-1.5-5.5-1.5H1041V160.2c0-5.2-3.6-8.8-8.8-8.8h-10.6c-5.6 0-9.2 3.5-9.2 9v130.9c0 5.4 4 9.4 9.4 9.4h85.3c3.3 0 8.8-1.2 8.8-9.6l-.6-10.2v-.1zM920.4 151.7h-62c-6.4 0-10.5 4.4-10.5 11.1v128.6c0 5.4 4 9.4 9.4 9.4h9.7c5.9 0 9.4-3.7 9.4-9.9v-51.7h46.8c27.7 0 47-18.1 47-44 0-21.7-15.4-43.5-49.8-43.5zm-43.9 26.6h43.9c7.3 0 13.2 2.1 17.1 6 2.9 3 4.5 6.9 4.4 10.9-.3 8.6-7.1 17.2-21.5 17.2h-43.9v-34.1zm558.3-26.8h-138.6c-4.1 0-8.6 2.3-8.6 8.8v9.1c0 8.5 6.9 9.2 9 9.2h54.8v112.9c0 5.6 3.7 9.4 9.2 9.4h10.4c2.7 0 9-.9 9-9.4v-113h54.6c5.4 0 9.2-3.6 9.2-8.8V160c0-4.3-2.7-8.5-9-8.5zm499.4 135.3c-7.4-8.9-20.1-24.2-39.5-47.8 25.5-1.7 42.9-19.3 42.9-43.8 0-21.7-15.4-43.5-49.8-43.5h-62c-6.4 0-10.5 4.4-10.5 11.1v128.6c0 5.4 4 9.4 9.4 9.4h9.7c5.9 0 9.4-3.7 9.4-9.9v-51.7h14c8.2 10 29.9 36.6 47 57.1l.2.2.2.2c.7.7 4.6 4 9.7 4h13.1c4.7 0 7.7-1.5 9.1-4.4 1.1-2.4.7-5.2-1.1-7.4l-1.8-2.1zm-90.3-108.5h43.9c7.3 0 13.2 2.1 17.1 6 2.9 3 4.5 6.9 4.4 10.9-.3 8.6-7.1 17.2-21.5 17.2h-43.9v-34.1zm-252.1-26.8h-107c-5.6 0-10.1 4.5-10.1 10.3V292c0 4.9 3.7 8.8 8.3 8.8h11.4c4.7 0 8.5-3.8 8.5-8.5V239h73.9c4.7 0 8.3-3.7 8.3-8.5v-10.6c0-4.7-3.7-8.3-8.3-8.3l-73.9.1V179h87.9c4.6 0 8.1-3.1 9.1-7.8l.1-.4.1-9c.4-2.4-.3-5-1.9-7-1.4-2.2-3.8-3.3-6.4-3.3zm525.4.2h-8.9c-5 0-7.9 2.4-9.6 4.2l-46 46.7-46.9-47.5-.3-.2c-2.4-2.1-5.3-3.2-8.5-3.2h-8.3c-5.1 0-8.6 3.5-8.6 8.8v131.1c0 5.5 3.5 9.2 8.8 9.2h10.8c5.5 0 9.2-3.8 9.2-9.4v-90.8l34.2 33.9c1.8 2.4 5.1 4.7 9.4 4.7 4.3 0 7.6-2.2 9.2-4.3l34.6-34.4v91.3c0 5.1 3.8 9 8.7 9h11c4.5 0 9.2-3.3 9.2-9.4V161.1c.1-5.2-2.9-8.7-8-9.4zm-418.3-4.1c-44.8 0-81.2 35-81.2 78.1 0 43.1 36.4 78.1 81.2 78.1 44.9 0 81.4-35.1 81.4-78.1 0-43.1-36.5-78.1-81.4-78.1zm0 127.4c-28.9 0-52.4-22.1-52.4-49.4 0-27.2 23.5-49.4 52.4-49.4 29 0 52.6 22.1 52.6 49.4 0 27.3-23.6 49.4-52.6 49.4z"/><path d="M789.6 187.4l-87.4-35.8-16.3-6.7-73.6-30.1-16.4-6.7S508 72.4 506.7 71.7c-1.4-.7-3.3 0-3.3 0L414.7 108l-16.3 6.7-74.4 30.4-16.3 6.7-88.3 36.2s-1.5.7-.2 1.3c.4.2 45 18.5 98.9 40.5 76.5 31.3 171.6 70.2 185.3 75.8 1.2.4 2.2.5 3.2.1 12.9-5.3 107.4-43.9 183.7-75.2 53.3-21.8 97.8-39.9 99.2-40.4 3.1-1.5.1-2.7.1-2.7m-120.3-35.6l-73.5 30.1h-.1L522 151.8l73.6-30.1 73.7 30.1zm-89.9 36.8l-74.2 30.3-73.7-30 74.2-30.4 73.7 30.1zM505.1 84.7l74.1 30.3-73.5 30.2-74.3-30.4 73.7-30.1zm-90 36.7l74.2 30.4-74.1 30.4-74.5-30.4 74.4-30.4zm-164.2 67.2l73.6-30.1 74.5 30.4-73.7 30.1-74.4-30.4zm90.7 37.1l73.6-30.1 73.7 30.1-73.7 30.1-73.6-30.1zm163.5 66.8l-73.6-30.1 73.7-30.2h.1l73.6 30.1-73.8 30.2zm90.1-36.9l-73.6-30.1 74.2-30.3 73.7 30-74.3 30.4zm90.6-37l-73.7-30 73.5-30.1 73.6 30.1-73.4 30z" class="st0"/><path d="M579.4 188.6l-74.2 30.3-73.7-30 74.2-30.4zm90.1 36.6l-74.3 30.4-73.7-30.1 74.3-30.3zm-90.6 37.1l-73.8 30.2-73.6-30.1 73.7-30.2h.1z" class="st1"/><path fill="#087cb6" d="M779.5 266.9l-276.3 113-276.5-113 91.2-37.3c76.5 31.3 171.6 70.2 185.3 75.8 1.2.4 2.2.5 3.2.1 12.9-5.3 107.4-43.9 183.7-75.2l89.4 36.6z"/><path d="M398.9 188.9L325.3 219l-74.4-30.4 73.6-30.1z" class="st3"/><path d="M488.9 225.7l-73.7 30-73.6-30 73.6-30.1z" class="st1"/><path d="M489.3 151.8l-74.1 30.4-74.5-30.4 74.4-30.4zm89.9-36.8l-73.5 30.2-74.3-30.4 73.7-30.1zm90.1 36.8l-73.5 30.1h-.1L522 151.8l73.6-30.1zm89.9 36.8l-73.4 30-73.7-30 73.5-30.1z" class="st3"/></svg>